<?xml version="1.0" standalone="no"?><!DOCTYPE svg PUBLIC "-//W3C//DTD SVG 1.1//EN" "http://www.w3.org/Graphics/SVG/1.1/DTD/svg11.dtd"><svg height="1024" legacy-metrics="false" node-id="1" sillyvg="true" template-height="1024" template-width="1024" version="1.1" viewBox="0 0 1024 1024" width="1024" xmlns="http://www.w3.org/2000/svg" xmlns:xlink="http://www.w3.org/1999/xlink"><defs node-id="73"><linearGradient gradientUnits="objectBoundingBox" id="linearGradient-1" node-id="5" x1="0.7053671" x2="0.3058451" y1="0.9525347" y2="0.09729988"><stop offset="0" stop-color="#fff1cf"></stop><stop offset="1" stop-color="#ffffff" stop-opacity="0"></stop></linearGradient><linearGradient gradientUnits="objectBoundingBox" id="linearGradient-2" node-id="8" x1="0.27142859" x2="0.5" y1="0.3285714" y2="1"><stop offset="0" stop-color="#f0c544"></stop><stop offset="1" stop-color="#f0bf44" stop-opacity="0"></stop></linearGradient><linearGradient gradientUnits="objectBoundingBox" id="linearGradient-3" node-id="11" x1="0.2291667" x2="0.75" y1="0.31249997" y2="0.7291666"><stop offset="0" stop-color="#f0bb44"></stop><stop offset="1" stop-color="#f0bd44" stop-opacity="0"></stop></linearGradient><linearGradient gradientUnits="objectBoundingBox" id="linearGradient-4" node-id="14" x1="0.5" x2="0.5" y1="-0.00000000000000003061617" y2="1"><stop offset="0" stop-color="#f0b944"></stop><stop offset="1" stop-color="#f0a444" stop-opacity="0"></stop></linearGradient><linearGradient gradientUnits="objectBoundingBox" id="linearGradient-5" node-id="17" x1="0.5" x2="0.5" y1="-0.00000000000000003061617" y2="1"><stop offset="0" stop-color="#f0c243"></stop><stop offset="1" stop-color="#f0bb43" stop-opacity="0"></stop></linearGradient><linearGradient gradientUnits="objectBoundingBox" id="linearGradient-6" node-id="20" x1="0.5" x2="0.5" y1="-0.00000000000000003061617" y2="1"><stop offset="0" stop-color="#f0c443"></stop><stop offset="1" stop-color="#f0bc43" stop-opacity="0"></stop></linearGradient><linearGradient gradientUnits="objectBoundingBox" id="linearGradient-7" node-id="23" x1="0.5" x2="0.5" y1="-0.00000000000000003061617" y2="1"><stop offset="0" stop-color="#f0b943"></stop><stop offset="1" stop-color="#f0c143" stop-opacity="0"></stop></linearGradient><linearGradient gradientUnits="objectBoundingBox" id="linearGradient-8" node-id="26" x1="0.5" x2="0.5" y1="-0.00000000000000003061617" y2="1"><stop offset="0" stop-color="#f0bb44"></stop><stop offset="1" stop-color="#f0c744" stop-opacity="0"></stop></linearGradient><linearGradient gradientUnits="objectBoundingBox" id="linearGradient-9" node-id="29" x1="0.5" x2="0.5" y1="-0.00000000000000003061617" y2="0.9845372"><stop offset="0" stop-color="#eec03f"></stop><stop offset="1" stop-color="#ffe9b7"></stop></linearGradient><linearGradient gradientUnits="objectBoundingBox" id="linearGradient-10" node-id="32" x1="0.5" x2="0.46145117" y1="-0.006936278" y2="0.46807882"><stop offset="0" stop-color="#e9c35a"></stop><stop offset="1" stop-color="#fff6d2"></stop></linearGradient><linearGradient gradientUnits="objectBoundingBox" id="linearGradient-11" node-id="35" x1="0.5" x2="0.5" y1="-0.00000000000000003061617" y2="0.9892459"><stop offset="0" stop-color="#ffe9b5"></stop><stop offset="1" stop-color="#f7be45"></stop></linearGradient><linearGradient gradientUnits="objectBoundingBox" id="linearGradient-12" node-id="38" x1="0.5" x2="0.5" y1="0.02712351" y2="1"><stop offset="0" stop-color="#fbe8b8"></stop><stop offset="1" stop-color="#edc057"></stop></linearGradient></defs><path d="M 812.00 512.50 C 812.00 677.91 677.91 812.00 512.50 812.00 C 347.09 812.00 213.00 677.91 213.00 512.50 C 213.00 347.09 347.09 213.00 512.50 213.00 C 677.91 213.00 812.00 347.09 812.00 512.50 Z" fill="url(#linearGradient-1)" fill-rule="nonzero" id="椭圆形" node-id="42" stroke="none" target-height="599" target-width="599" target-x="213" target-y="213"></path><g node-id="75"><path d="M 239.14 401.44 L 239.77 400.64 L 240.65 400.39 L 241.53 400.64 L 242.16 401.44 L 242.83 403.26 L 244.44 407.60 L 246.36 412.79 L 247.97 417.13 L 248.64 418.95 L 249.01 419.53 L 249.59 419.91 L 251.41 420.58 L 255.76 422.19 L 260.94 424.11 L 265.29 425.71 L 267.11 426.39 L 267.91 427.02 L 268.16 427.90 L 267.91 428.78 L 267.11 429.41 L 265.29 430.08 L 260.94 431.69 L 255.76 433.61 L 251.41 435.22 L 249.59 435.89 L 249.01 436.26 L 248.64 436.84 L 247.97 438.66 L 246.36 443.01 L 244.44 448.19 L 242.83 452.54 L 242.16 454.36 L 241.53 455.16 L 240.65 455.41 L 239.77 455.16 L 239.14 454.36 L 238.46 452.54 L 236.86 448.19 L 234.94 443.01 L 233.33 438.66 L 232.66 436.84 L 232.28 436.26 L 231.70 435.89 L 229.88 435.22 L 225.54 433.61 L 220.35 431.69 L 216.01 430.08 L 214.19 429.41 L 213.39 428.78 L 213.13 427.90 L 213.39 427.02 L 214.19 426.39 L 216.01 425.71 L 220.35 424.11 L 225.54 422.19 L 229.88 420.58 L 231.70 419.91 L 232.28 419.53 L 232.66 418.95 L 233.33 417.13 L 234.94 412.79 L 236.86 407.60 L 238.46 403.26 L 239.14 401.44 Z" fill="url(#linearGradient-2)" fill-rule="nonzero" group-id="1" id="路径" node-id="44" stroke-linecap="butt" stroke-width="1" target-height="55.02588" target-width="55.02588" target-x="213.13483" target-y="400.3852"></path><path d="M 633.79 161.39 L 634.42 160.59 L 635.30 160.34 L 636.18 160.59 L 636.81 161.39 L 637.36 162.88 L 638.68 166.44 L 640.25 170.68 L 641.56 174.23 L 642.11 175.72 L 642.49 176.30 L 643.07 176.67 L 644.56 177.23 L 648.11 178.54 L 652.35 180.11 L 655.91 181.43 L 657.40 181.98 L 658.19 182.61 L 658.45 183.49 L 658.19 184.37 L 657.40 185.00 L 655.91 185.55 L 652.35 186.87 L 648.11 188.44 L 644.56 189.75 L 643.07 190.30 L 642.49 190.67 L 642.11 191.25 L 641.56 192.75 L 640.25 196.30 L 638.68 200.54 L 637.36 204.10 L 636.81 205.59 L 636.18 206.38 L 635.30 206.64 L 634.42 206.38 L 633.79 205.59 L 633.24 204.10 L 631.92 200.54 L 630.35 196.30 L 629.04 192.75 L 628.49 191.25 L 628.11 190.67 L 627.53 190.30 L 626.04 189.75 L 622.49 188.44 L 618.25 186.87 L 614.69 185.55 L 613.20 185.00 L 612.40 184.37 L 612.15 183.49 L 612.40 182.61 L 613.20 181.98 L 614.69 181.43 L 618.25 180.11 L 622.49 178.54 L 626.04 177.23 L 627.53 176.67 L 628.11 176.30 L 628.49 175.72 L 629.04 174.23 L 630.35 170.68 L 631.92 166.44 L 633.24 162.88 L 633.79 161.39 Z" fill="url(#linearGradient-3)" fill-rule="nonzero" group-id="1" id="路径" node-id="45" stroke-linecap="butt" stroke-width="1" target-height="46.298843" target-width="46.298767" target-x="612.1501" target-y="160.33922"></path><path d="M 786.50 514.05 L 787.13 513.25 L 788.00 513.00 L 788.87 513.25 L 789.50 514.05 L 790.17 515.86 L 791.85 520.39 L 794.03 526.27 L 796.21 532.16 L 797.88 536.69 L 798.55 538.50 L 798.92 539.08 L 799.50 539.45 L 801.31 540.12 L 805.84 541.80 L 811.73 543.97 L 817.61 546.15 L 822.14 547.83 L 823.95 548.50 L 824.75 549.13 L 825.00 550.00 L 824.75 550.87 L 823.95 551.50 L 822.14 552.17 L 817.61 553.85 L 811.73 556.03 L 805.84 558.21 L 801.31 559.88 L 799.50 560.55 L 798.92 560.92 L 798.55 561.50 L 797.88 563.31 L 796.20 567.84 L 794.03 573.73 L 791.85 579.61 L 790.17 584.14 L 789.50 585.95 L 788.87 586.75 L 788.00 587.00 L 787.13 586.75 L 786.50 585.95 L 785.83 584.14 L 784.15 579.61 L 781.97 573.73 L 779.80 567.84 L 778.12 563.31 L 777.45 561.50 L 777.08 560.92 L 776.50 560.55 L 774.69 559.88 L 770.16 558.20 L 764.27 556.03 L 758.39 553.85 L 753.86 552.17 L 752.05 551.50 L 751.25 550.87 L 751.00 550.00 L 751.25 549.13 L 752.05 548.50 L 753.86 547.83 L 758.39 546.15 L 764.27 543.97 L 770.16 541.80 L 774.69 540.12 L 776.50 539.45 L 777.08 539.08 L 777.45 538.50 L 778.12 536.69 L 779.79 532.16 L 781.97 526.27 L 784.15 520.39 L 785.83 515.86 L 786.50 514.05 Z" fill="url(#linearGradient-4)" fill-rule="nonzero" group-id="1" id="路径" node-id="46" stroke-linecap="butt" stroke-width="1" target-height="74" target-width="74" target-x="751" target-y="513"></path><path d="M 292.00 655.50 L 291.70 658.69 L 290.90 661.62 L 289.61 664.33 L 287.87 666.79 L 285.79 668.87 L 283.33 670.61 L 280.62 671.90 L 277.69 672.70 L 274.50 673.00 L 271.31 672.70 L 268.38 671.90 L 265.67 670.61 L 263.21 668.87 L 261.13 666.79 L 259.39 664.33 L 258.10 661.62 L 257.30 658.69 L 257.00 655.50 L 257.30 652.31 L 258.10 649.38 L 259.39 646.67 L 261.13 644.21 L 263.21 642.13 L 265.67 640.39 L 268.38 639.10 L 271.31 638.30 L 274.50 638.00 L 277.69 638.30 L 280.62 639.10 L 283.33 640.39 L 285.79 642.13 L 287.87 644.21 L 289.61 646.67 L 290.90 649.38 L 291.70 652.31 L 292.00 655.50 Z" fill="#ffffff" fill-rule="nonzero" group-id="1" id="椭圆形" node-id="47" stroke-linecap="butt" stroke-width="1" target-height="35" target-width="35" target-x="257" target-y="638"></path><path d="M 287.96 655.50 L 287.73 657.96 L 287.12 660.21 L 286.12 662.29 L 284.79 664.18 L 283.18 665.79 L 281.29 667.12 L 279.21 668.12 L 276.96 668.73 L 274.50 668.96 L 272.04 668.73 L 269.79 668.12 L 267.71 667.12 L 265.82 665.79 L 264.21 664.18 L 262.88 662.29 L 261.88 660.21 L 261.27 657.96 L 261.04 655.50 L 261.27 653.04 L 261.88 650.79 L 262.88 648.71 L 264.21 646.82 L 265.82 645.21 L 267.71 643.88 L 269.79 642.88 L 272.04 642.27 L 274.50 642.04 L 276.96 642.27 L 279.21 642.88 L 281.29 643.88 L 283.18 645.21 L 284.79 646.82 L 286.12 648.71 L 287.12 650.79 L 287.73 653.04 L 287.96 655.50 Z" fill="none" group-id="1" id="椭圆形" node-id="48" stroke="url(#linearGradient-5)" stroke-linecap="butt" stroke-width="5" target-height="26.92273" target-width="26.92273" target-x="261.03864" target-y="642.03864"></path><path d="M 430.00 282.00 L 429.76 284.56 L 429.12 286.90 L 428.09 289.07 L 426.70 291.03 L 425.03 292.70 L 423.07 294.09 L 420.90 295.12 L 418.56 295.76 L 416.00 296.00 L 413.44 295.76 L 411.10 295.12 L 408.93 294.09 L 406.97 292.70 L 405.30 291.03 L 403.91 289.07 L 402.88 286.90 L 402.24 284.56 L 402.00 282.00 L 402.24 279.44 L 402.88 277.10 L 403.91 274.93 L 405.30 272.97 L 406.97 271.30 L 408.93 269.91 L 411.10 268.88 L 413.44 268.24 L 416.00 268.00 L 418.56 268.24 L 420.90 268.88 L 423.07 269.91 L 425.03 271.30 L 426.70 272.97 L 428.09 274.93 L 429.12 277.10 L 429.76 279.44 L 430.00 282.00 Z" fill="#ffffff" fill-rule="nonzero" group-id="1" id="椭圆形" node-id="49" stroke-linecap="butt" stroke-width="1" target-height="28" target-width="28" target-x="402" target-y="268"></path><path d="M 425.96 282.00 L 425.79 283.82 L 425.34 285.48 L 424.60 287.03 L 423.61 288.43 L 422.43 289.61 L 421.03 290.60 L 419.48 291.34 L 417.82 291.79 L 416.00 291.96 L 414.18 291.79 L 412.52 291.34 L 410.97 290.60 L 409.57 289.61 L 408.39 288.43 L 407.40 287.03 L 406.66 285.48 L 406.21 283.82 L 406.04 282.00 L 406.21 280.18 L 406.66 278.52 L 407.40 276.97 L 408.39 275.57 L 409.57 274.39 L 410.97 273.40 L 412.52 272.66 L 414.18 272.21 L 416.00 272.04 L 417.82 272.21 L 419.48 272.66 L 421.03 273.40 L 422.43 274.39 L 423.61 275.57 L 424.60 276.97 L 425.34 278.52 L 425.79 280.18 L 425.96 282.00 Z" fill="none" group-id="1" id="椭圆形" node-id="50" stroke="url(#linearGradient-6)" stroke-linecap="butt" stroke-width="5" target-height="19.92273" target-width="19.92273" target-x="406.03864" target-y="272.03864"></path><path d="M 753.00 722.50 L 752.77 725.62 L 752.18 728.53 L 751.24 731.27 L 749.93 733.86 L 748.29 736.27 L 746.41 738.41 L 744.27 740.29 L 741.86 741.93 L 739.27 743.24 L 736.53 744.18 L 733.62 744.77 L 730.50 745.00 L 727.38 744.77 L 724.47 744.18 L 721.73 743.24 L 719.14 741.93 L 716.73 740.29 L 714.59 738.41 L 712.71 736.27 L 711.07 733.86 L 709.76 731.27 L 708.82 728.53 L 708.23 725.62 L 708.00 722.50 L 708.23 719.38 L 708.82 716.47 L 709.76 713.73 L 711.07 711.14 L 712.71 708.73 L 714.59 706.59 L 716.73 704.71 L 719.14 703.07 L 721.73 701.76 L 724.47 700.82 L 727.38 700.23 L 730.50 700.00 L 733.62 700.23 L 736.53 700.82 L 739.27 701.76 L 741.86 703.07 L 744.27 704.71 L 746.41 706.59 L 748.29 708.73 L 749.93 711.14 L 751.24 713.73 L 752.18 716.47 L 752.77 719.38 L 753.00 722.50 Z" fill="#ffffff" fill-rule="nonzero" group-id="1" id="椭圆形" node-id="51" stroke-linecap="butt" stroke-width="1" target-height="45" target-width="45" target-x="708" target-y="700"></path><path d="M 748.98 722.50 L 748.67 725.87 L 747.83 728.96 L 746.46 731.83 L 744.62 734.42 L 742.42 736.62 L 739.83 738.46 L 736.96 739.83 L 733.87 740.67 L 730.50 740.98 L 727.13 740.67 L 724.04 739.83 L 721.17 738.46 L 718.58 736.62 L 716.38 734.42 L 714.54 731.83 L 713.17 728.96 L 712.33 725.87 L 712.02 722.50 L 712.33 719.13 L 713.17 716.03 L 714.54 713.17 L 716.38 710.58 L 718.58 708.38 L 721.17 706.54 L 724.04 705.17 L 727.13 704.33 L 730.50 704.02 L 733.87 704.33 L 736.96 705.17 L 739.83 706.54 L 742.42 708.38 L 744.62 710.58 L 746.46 713.17 L 747.83 716.03 L 748.67 719.13 L 748.98 722.50 Z" fill="none" group-id="1" id="椭圆形" node-id="52" stroke="url(#linearGradient-7)" stroke-linecap="butt" stroke-width="5" target-height="36.964294" target-width="36.964294" target-x="712.0178" target-y="704.0179"></path><path d="M 590.49 277.84 L 589.81 278.27 L 589.13 278.70 L 589.81 278.27 L 590.49 277.84 Z M 533.97 314.15 L 533.25 314.51 L 532.53 314.87 L 533.25 314.51 L 533.97 314.15 Z M 649.93 298.89 L 649.33 298.34 L 648.73 297.80 L 649.33 298.34 L 649.93 298.89 Z M 555.74 385.00 L 556.77 383.82 L 556.14 383.27 L 554.97 382.24 L 554.34 381.69 L 553.31 382.86 L 553.94 383.42 L 555.11 384.45 L 555.74 385.00 Z M 558.85 381.42 L 560.92 379.02 L 560.29 378.47 L 559.11 377.46 L 558.47 376.91 L 556.42 379.30 L 557.05 379.85 L 558.22 380.87 L 558.85 381.42 Z M 562.98 376.60 L 565.02 374.16 L 564.38 373.62 L 563.18 372.62 L 562.54 372.09 L 560.52 374.51 L 561.15 375.05 L 562.34 376.05 L 562.98 376.60 Z M 567.04 371.71 L 569.03 369.24 L 568.38 368.71 L 567.17 367.74 L 566.52 367.21 L 564.54 369.66 L 565.19 370.19 L 566.39 371.18 L 567.04 371.71 Z M 571.01 366.74 L 572.95 364.22 L 572.29 363.71 L 571.05 362.77 L 570.39 362.26 L 568.47 364.74 L 569.13 365.26 L 570.35 366.22 L 571.01 366.74 Z M 574.87 361.68 L 576.75 359.11 L 576.08 358.62 L 574.82 357.70 L 574.14 357.21 L 572.28 359.74 L 572.95 360.25 L 574.20 361.18 L 574.87 361.68 Z M 578.60 356.51 L 580.41 353.88 L 579.72 353.41 L 578.43 352.54 L 577.74 352.07 L 575.96 354.65 L 576.64 355.13 L 577.92 356.03 L 578.60 356.51 Z M 582.17 351.22 L 583.89 348.53 L 583.18 348.09 L 581.87 347.26 L 581.16 346.81 L 579.47 349.45 L 580.17 349.91 L 581.47 350.77 L 582.17 351.22 Z M 585.56 345.80 L 587.17 343.04 L 586.44 342.62 L 585.09 341.85 L 584.36 341.44 L 582.79 344.14 L 583.51 344.57 L 584.84 345.37 L 585.56 345.80 Z M 588.72 340.23 L 590.20 337.39 L 589.45 337.01 L 588.07 336.31 L 587.32 335.93 L 585.88 338.70 L 586.61 339.10 L 587.98 339.83 L 588.72 340.23 Z M 591.60 334.50 L 592.93 331.58 L 592.16 331.24 L 590.73 330.62 L 589.97 330.29 L 588.68 333.12 L 589.44 333.48 L 590.85 334.15 L 591.60 334.50 Z M 594.16 328.60 L 595.29 325.58 L 594.50 325.30 L 593.04 324.78 L 592.25 324.50 L 591.16 327.41 L 591.94 327.72 L 593.38 328.29 L 594.16 328.60 Z M 596.32 322.52 L 597.22 319.42 L 596.41 319.20 L 594.91 318.79 L 594.10 318.58 L 593.24 321.55 L 594.03 321.80 L 595.52 322.27 L 596.32 322.52 Z M 597.98 316.27 L 598.60 313.09 L 597.78 312.95 L 596.25 312.69 L 595.42 312.54 L 594.83 315.57 L 595.65 315.75 L 597.17 316.09 L 597.98 316.27 Z M 599.06 309.87 L 599.35 306.62 L 598.51 306.57 L 596.96 306.48 L 596.13 306.43 L 595.86 309.49 L 596.69 309.59 L 598.23 309.77 L 599.06 309.87 Z M 599.45 303.36 L 599.35 300.10 L 598.51 300.15 L 596.96 300.25 L 596.12 300.30 L 596.22 303.36 L 597.06 303.36 L 598.61 303.36 L 599.45 303.36 Z M 599.04 296.84 L 598.51 293.61 L 597.69 293.77 L 596.17 294.07 L 595.34 294.24 L 595.83 297.25 L 596.66 297.15 L 598.21 296.95 L 599.04 296.84 Z M 597.77 290.42 L 596.81 287.28 L 596.02 287.56 L 594.55 288.07 L 593.76 288.34 L 594.65 291.26 L 595.46 291.04 L 596.96 290.64 L 597.77 290.42 Z M 595.64 284.22 L 594.27 281.26 L 593.52 281.64 L 592.13 282.34 L 591.39 282.71 L 592.66 285.48 L 593.43 285.16 L 594.87 284.55 L 595.64 284.22 Z M 592.71 278.39 L 591.86 276.98 L 591.15 277.43 L 589.84 278.26 L 589.13 278.70 L 589.93 280.03 L 590.65 279.60 L 591.99 278.82 L 592.71 278.39 Z M 591.86 276.98 L 590.94 275.57 L 590.25 276.04 L 588.97 276.92 L 588.27 277.39 L 589.13 278.70 L 589.84 278.26 L 591.15 277.43 L 591.86 276.98 Z M 589.01 272.92 L 586.85 270.42 L 586.24 270.99 L 585.11 272.06 L 584.50 272.64 L 586.48 274.93 L 587.13 274.41 L 588.35 273.44 L 589.01 272.92 Z M 584.46 268.10 L 581.84 266.02 L 581.35 266.70 L 580.46 267.97 L 579.97 268.66 L 582.33 270.53 L 582.88 269.90 L 583.91 268.73 L 584.46 268.10 Z M 578.99 264.23 L 575.95 262.79 L 575.64 263.57 L 575.06 265.01 L 574.75 265.79 L 577.44 267.07 L 577.84 266.33 L 578.59 264.97 L 578.99 264.23 Z M 572.75 261.73 L 569.44 261.08 L 569.33 261.91 L 569.13 263.45 L 569.02 264.28 L 571.93 264.86 L 572.15 264.05 L 572.54 262.54 L 572.75 261.73 Z M 566.08 260.84 L 562.73 261.00 L 562.82 261.84 L 562.98 263.39 L 563.07 264.22 L 566.05 264.08 L 566.06 263.24 L 566.08 261.68 L 566.08 260.84 Z M 559.43 261.55 L 556.21 262.43 L 556.47 263.23 L 556.96 264.71 L 557.22 265.51 L 560.12 264.71 L 559.94 263.89 L 559.60 262.37 L 559.43 261.55 Z M 553.10 263.63 L 550.13 265.11 L 550.53 265.84 L 551.28 267.21 L 551.69 267.94 L 554.40 266.59 L 554.07 265.83 L 553.44 264.40 L 553.10 263.63 Z M 547.30 266.83 L 544.63 268.78 L 545.15 269.44 L 546.12 270.66 L 546.64 271.32 L 549.10 269.53 L 548.63 268.83 L 547.77 267.53 L 547.30 266.83 Z M 542.13 270.94 L 539.80 273.29 L 540.42 273.85 L 541.56 274.91 L 542.17 275.48 L 544.33 273.31 L 543.76 272.70 L 542.70 271.56 L 542.13 270.94 Z M 537.66 275.80 L 535.72 278.47 L 536.41 278.94 L 537.71 279.81 L 538.40 280.28 L 540.20 277.81 L 539.54 277.29 L 538.32 276.32 L 537.66 275.80 Z M 533.99 281.29 L 532.49 284.24 L 533.25 284.59 L 534.66 285.25 L 535.42 285.60 L 536.80 282.88 L 536.07 282.47 L 534.72 281.70 L 533.99 281.29 Z M 531.23 287.31 L 530.23 290.48 L 531.04 290.70 L 532.54 291.10 L 533.35 291.32 L 534.26 288.42 L 533.47 288.13 L 532.01 287.60 L 531.23 287.31 Z M 529.52 293.73 L 529.10 297.04 L 529.93 297.10 L 531.48 297.22 L 532.32 297.29 L 532.70 294.28 L 531.87 294.14 L 530.34 293.87 L 529.52 293.73 Z M 529.00 300.37 L 529.22 303.70 L 530.05 303.61 L 531.60 303.42 L 532.43 303.33 L 532.23 300.31 L 531.39 300.33 L 529.84 300.36 L 529.00 300.37 Z M 529.77 307.00 L 530.65 310.22 L 531.44 309.96 L 532.92 309.48 L 533.71 309.22 L 532.93 306.31 L 532.11 306.48 L 530.59 306.82 L 529.77 307.00 Z M 531.82 313.34 L 532.53 314.87 L 533.28 314.50 L 534.67 313.81 L 535.42 313.44 L 534.78 312.05 L 534.01 312.38 L 532.59 313.00 L 531.82 313.34 Z M 532.53 314.87 L 533.27 316.33 L 534.01 315.93 L 535.38 315.20 L 536.12 314.80 L 535.42 313.44 L 534.67 313.81 L 533.28 314.50 L 532.53 314.87 Z M 534.90 319.16 L 536.73 321.88 L 537.41 321.39 L 538.66 320.48 L 539.34 319.99 L 537.64 317.45 L 536.93 317.89 L 535.62 318.72 L 534.90 319.16 Z M 538.73 324.47 L 540.92 326.91 L 541.52 326.33 L 542.64 325.25 L 543.24 324.67 L 541.21 322.40 L 540.57 322.94 L 539.38 323.93 L 538.73 324.47 Z M 543.26 329.20 L 545.77 331.31 L 546.28 330.65 L 547.24 329.42 L 547.76 328.76 L 545.43 326.80 L 544.87 327.42 L 543.82 328.58 L 543.26 329.20 Z M 548.41 333.24 L 551.19 334.98 L 551.60 334.25 L 552.38 332.90 L 552.80 332.17 L 550.22 330.56 L 549.75 331.25 L 548.88 332.54 L 548.41 333.24 Z M 554.07 336.52 L 557.06 337.85 L 557.37 337.08 L 557.96 335.63 L 558.27 334.85 L 555.49 333.61 L 555.12 334.36 L 554.44 335.76 L 554.07 336.52 Z M 560.13 338.98 L 563.26 339.90 L 563.46 339.09 L 563.85 337.58 L 564.06 336.77 L 561.13 335.91 L 560.87 336.70 L 560.39 338.18 L 560.13 338.98 Z M 566.43 340.62 L 569.65 341.13 L 569.75 340.30 L 569.95 338.75 L 570.06 337.92 L 567.04 337.44 L 566.88 338.26 L 566.59 339.79 L 566.43 340.62 Z M 572.88 341.45 L 576.13 341.57 L 576.14 340.73 L 576.15 339.17 L 576.16 338.33 L 573.10 338.22 L 573.04 339.05 L 572.94 340.61 L 572.88 341.45 Z M 579.38 341.51 L 582.62 341.28 L 582.54 340.45 L 582.39 338.90 L 582.31 338.06 L 579.23 338.28 L 579.27 339.12 L 579.34 340.68 L 579.38 341.51 Z M 585.83 340.89 L 589.01 340.34 L 588.84 339.51 L 588.54 337.98 L 588.38 337.16 L 585.35 337.68 L 585.48 338.51 L 585.70 340.06 L 585.83 340.89 Z M 592.16 339.64 L 595.29 338.79 L 595.06 337.99 L 594.62 336.49 L 594.39 335.69 L 591.39 336.49 L 591.59 337.31 L 591.96 338.82 L 592.16 339.64 Z M 598.35 337.83 L 601.38 336.74 L 601.08 335.96 L 600.53 334.50 L 600.24 333.72 L 597.33 334.76 L 597.59 335.56 L 598.09 337.03 L 598.35 337.83 Z M 604.38 335.54 L 607.31 334.24 L 606.96 333.47 L 606.30 332.06 L 605.95 331.30 L 603.12 332.56 L 603.45 333.33 L 604.05 334.76 L 604.38 335.54 Z M 610.19 332.83 L 613.06 331.33 L 612.65 330.59 L 611.91 329.22 L 611.51 328.48 L 608.74 329.94 L 609.12 330.69 L 609.82 332.08 L 610.19 332.83 Z M 615.82 329.76 L 618.57 328.09 L 618.13 327.38 L 617.31 326.06 L 616.87 325.34 L 614.20 326.96 L 614.62 327.69 L 615.40 329.03 L 615.82 329.76 Z M 621.26 326.35 L 623.90 324.55 L 623.42 323.86 L 622.53 322.59 L 622.05 321.90 L 619.48 323.66 L 619.94 324.36 L 620.80 325.65 L 621.26 326.35 Z M 626.51 322.67 L 629.05 320.75 L 628.53 320.09 L 627.58 318.86 L 627.07 318.19 L 624.60 320.07 L 625.09 320.74 L 626.02 322.00 L 626.51 322.67 Z M 631.57 318.75 L 634.01 316.72 L 633.47 316.08 L 632.46 314.89 L 631.92 314.25 L 629.54 316.23 L 630.06 316.88 L 631.04 318.09 L 631.57 318.75 Z M 636.44 314.61 L 638.79 312.49 L 638.23 311.87 L 637.18 310.72 L 636.61 310.10 L 634.31 312.18 L 634.86 312.81 L 635.89 313.98 L 636.44 314.61 Z M 641.14 310.29 L 643.41 308.08 L 642.82 307.48 L 641.73 306.37 L 641.14 305.78 L 638.91 307.94 L 639.49 308.55 L 640.56 309.68 L 641.14 310.29 Z M 645.67 305.80 L 647.86 303.51 L 647.26 302.94 L 646.13 301.86 L 645.52 301.29 L 643.36 303.54 L 643.96 304.12 L 645.07 305.21 L 645.67 305.80 Z M 650.04 301.17 L 651.13 299.97 L 650.50 299.41 L 649.35 298.36 L 648.73 297.80 L 647.66 298.98 L 648.27 299.55 L 649.42 300.60 L 650.04 301.17 Z M 651.13 299.97 L 652.21 298.73 L 651.57 298.19 L 650.39 297.18 L 649.75 296.63 L 648.73 297.80 L 649.35 298.36 L 650.50 299.41 L 651.13 299.97 Z M 654.23 296.21 L 656.10 293.55 L 655.41 293.09 L 654.11 292.23 L 653.41 291.76 L 651.65 294.25 L 652.32 294.76 L 653.56 295.70 L 654.23 296.21 Z M 657.81 290.77 L 659.34 287.88 L 658.58 287.52 L 657.18 286.83 L 656.43 286.47 L 655.01 289.16 L 655.74 289.58 L 657.09 290.35 L 657.81 290.77 Z M 660.65 284.90 L 661.76 281.82 L 660.97 281.57 L 659.49 281.09 L 658.69 280.83 L 657.66 283.69 L 658.44 284.00 L 659.88 284.58 L 660.65 284.90 Z M 662.65 278.68 L 663.32 275.48 L 662.49 275.34 L 660.96 275.08 L 660.14 274.93 L 659.52 277.91 L 660.33 278.11 L 661.84 278.48 L 662.65 278.68 Z M 663.76 272.25 L 663.99 268.99 L 663.15 268.96 L 661.60 268.90 L 660.76 268.87 L 660.55 271.92 L 661.38 272.00 L 662.93 272.16 L 663.76 272.25 Z M 664.00 265.73 L 663.81 262.49 L 662.98 262.56 L 661.43 262.69 L 660.60 262.77 L 660.77 265.82 L 661.61 265.80 L 663.16 265.76 L 664.00 265.73 Z M 663.44 259.26 L 662.89 256.06 L 662.07 256.23 L 660.55 256.53 L 659.73 256.70 L 660.25 259.72 L 661.07 259.60 L 662.61 259.38 L 663.44 259.26 Z M 662.18 252.91 L 661.31 249.79 L 660.51 250.04 L 659.02 250.49 L 658.22 250.73 L 659.05 253.70 L 659.86 253.49 L 661.37 253.11 L 662.18 252.91 Z M 660.31 246.73 L 659.17 243.71 L 658.39 244.02 L 656.95 244.60 L 656.18 244.91 L 657.26 247.80 L 658.05 247.52 L 659.52 247.00 L 660.31 246.73 Z M 657.91 240.74 L 656.55 237.83 L 655.80 238.21 L 654.40 238.90 L 653.65 239.27 L 654.97 242.07 L 655.73 241.73 L 657.15 241.09 L 657.91 240.74 Z M 655.07 234.98 L 653.50 232.18 L 652.78 232.60 L 651.44 233.39 L 650.72 233.82 L 652.23 236.52 L 652.97 236.12 L 654.34 235.38 L 655.07 234.98 Z M 651.83 229.44 L 650.07 226.75 L 649.38 227.23 L 648.10 228.10 L 647.41 228.58 L 649.11 231.17 L 649.81 230.72 L 651.13 229.89 L 651.83 229.44 Z M 648.23 224.13 L 646.29 221.57 L 645.63 222.09 L 644.41 223.05 L 643.75 223.57 L 645.62 226.04 L 646.30 225.55 L 647.55 224.63 L 648.23 224.13 Z M 644.27 219.07 L 642.15 216.66 L 641.53 217.22 L 640.38 218.28 L 639.77 218.84 L 641.80 221.16 L 642.44 220.62 L 643.63 219.62 L 644.27 219.07 Z M 639.94 214.33 L 637.59 212.08 L 637.02 212.70 L 635.98 213.86 L 635.42 214.48 L 637.65 216.62 L 638.25 216.02 L 639.35 214.92 L 639.94 214.33 Z M 635.10 209.98 L 633.77 209.00 L 633.29 209.69 L 632.40 210.97 L 631.93 211.66 L 633.12 212.54 L 633.63 211.88 L 634.59 210.65 L 635.10 209.98 Z" fill="#ffdb9b" fill-rule="nonzero" group-id="1" id="形状" node-id="53" stroke-linecap="butt" stroke-width="1" target-height="176" target-width="135" target-x="529" target-y="209"></path><path d="M 707.48 311.45 L 708.59 310.44 L 709.86 309.84 L 711.25 309.64 L 712.63 309.84 L 713.91 310.44 L 715.02 311.45 L 715.94 312.60 L 718.13 315.32 L 720.74 318.58 L 722.92 321.31 L 723.84 322.45 L 724.52 323.60 L 724.86 324.73 L 724.89 325.90 L 724.43 327.57 L 723.42 328.98 L 722.49 329.68 L 721.39 330.13 L 720.07 330.31 L 718.24 330.31 L 713.86 330.31 L 708.64 330.31 L 704.26 330.31 L 702.43 330.31 L 701.11 330.13 L 700.01 329.68 L 699.08 328.98 L 698.07 327.57 L 697.60 325.90 L 697.63 324.73 L 697.97 323.60 L 698.65 322.45 L 699.57 321.31 L 701.76 318.58 L 704.37 315.32 L 706.56 312.60 L 707.48 311.45 Z" fill="url(#linearGradient-8)" fill-rule="nonzero" group-id="1" id="路径" node-id="54" stroke-linecap="butt" stroke-width="1" target-height="20.669983" target-width="27.29004" target-x="697.6033" target-y="309.6419"></path></g><g node-id="76"><path d="M 569.47 641.00 L 371.40 641.00 L 370.59 640.98 L 369.79 640.92 L 368.99 640.82 L 368.20 640.69 L 367.41 640.51 L 366.64 640.30 L 365.87 640.05 L 365.12 639.76 L 364.39 639.43 L 363.67 639.07 L 362.97 638.68 L 362.29 638.25 L 361.63 637.79 L 360.99 637.30 L 360.39 636.78 L 359.80 636.22 L 359.25 635.64 L 358.72 635.04 L 358.23 634.41 L 357.76 633.75 L 357.33 633.08 L 356.94 632.38 L 356.57 631.67 L 356.25 630.94 L 355.96 630.19 L 355.71 629.43 L 355.49 628.66 L 355.32 627.88 L 355.18 627.09 L 355.08 626.29 L 355.02 625.50 L 355.00 624.70 L 355.00 618.39 L 355.02 617.59 L 355.08 616.80 L 355.18 616.00 L 355.32 615.21 L 355.49 614.43 L 355.71 613.66 L 355.96 612.90 L 356.25 612.16 L 356.57 611.42 L 356.94 610.71 L 357.33 610.01 L 357.76 609.34 L 358.23 608.68 L 358.72 608.05 L 359.25 607.45 L 359.80 606.87 L 360.39 606.31 L 360.99 605.79 L 361.63 605.30 L 362.29 604.84 L 362.97 604.41 L 363.67 604.02 L 364.39 603.66 L 365.12 603.33 L 365.87 603.04 L 366.64 602.79 L 367.41 602.58 L 368.20 602.40 L 368.99 602.27 L 369.79 602.17 L 370.59 602.11 L 371.40 602.09 L 569.47 602.09 L 571.33 602.20 L 573.17 602.51 L 574.96 603.03 L 576.68 603.75 L 578.31 604.66 L 579.82 605.75 L 581.20 606.99 L 582.42 608.39 L 616.20 608.39 L 618.84 608.23 L 621.41 607.74 L 623.93 606.93 L 626.52 605.70 L 628.89 604.15 L 631.05 602.27 L 632.94 600.12 L 634.50 597.77 L 635.73 595.19 L 636.55 592.69 L 637.04 590.13 L 637.21 587.50 L 637.04 584.87 L 636.55 582.31 L 635.73 579.81 L 634.50 577.23 L 632.94 574.88 L 631.05 572.73 L 628.89 570.85 L 626.52 569.30 L 623.93 568.07 L 621.41 567.26 L 618.84 566.77 L 616.20 566.61 L 550.65 566.61 L 550.65 534.00 L 616.20 534.00 L 618.84 534.06 L 621.47 534.26 L 624.09 534.58 L 626.69 535.03 L 629.27 535.60 L 631.81 536.30 L 634.32 537.13 L 636.79 538.07 L 639.20 539.14 L 641.56 540.32 L 643.86 541.61 L 646.09 543.02 L 648.25 544.53 L 650.33 546.14 L 652.33 547.86 L 654.24 549.67 L 656.06 551.57 L 657.79 553.56 L 659.41 555.63 L 660.93 557.78 L 662.34 560.00 L 663.65 562.28 L 664.83 564.63 L 665.90 567.03 L 666.86 569.48 L 667.68 571.97 L 668.39 574.50 L 668.97 577.06 L 669.42 579.65 L 669.74 582.26 L 669.93 584.87 L 670.00 587.50 L 669.93 590.12 L 669.74 592.74 L 669.42 595.35 L 668.97 597.94 L 668.39 600.50 L 667.68 603.03 L 666.86 605.52 L 665.90 607.97 L 664.83 610.37 L 663.65 612.72 L 662.34 615.00 L 660.93 617.22 L 659.41 619.37 L 657.79 621.44 L 656.06 623.43 L 654.24 625.33 L 652.33 627.14 L 650.33 628.86 L 648.25 630.47 L 646.09 631.98 L 643.86 633.39 L 641.56 634.68 L 639.20 635.86 L 636.79 636.93 L 634.32 637.87 L 631.81 638.70 L 629.27 639.40 L 626.69 639.97 L 624.09 640.42 L 621.47 640.74 L 618.84 640.94 L 616.20 641.00 L 569.47 641.00 Z" fill="url(#linearGradient-9)" fill-rule="evenodd" group-id="2" id="路径" node-id="56" stroke-linecap="butt" stroke-width="1" target-height="107" target-width="315" target-x="355" target-y="534"></path><path d="M 624.06 461.80 L 630.13 463.44 L 631.69 463.78 L 633.28 463.96 L 634.87 463.99 L 636.46 463.86 L 638.03 463.57 L 639.57 463.13 L 641.05 462.54 L 642.47 461.81 L 643.82 460.93 L 645.07 459.94 L 646.21 458.82 L 647.25 457.59 L 648.15 456.27 L 648.93 454.86 L 649.57 453.39 L 650.05 451.86 L 669.36 379.32 L 724.73 379.32 L 725.53 379.30 L 726.33 379.24 L 727.12 379.14 L 727.91 379.00 L 728.69 378.83 L 729.45 378.61 L 730.21 378.36 L 730.96 378.07 L 731.69 377.75 L 732.40 377.38 L 733.10 376.99 L 733.77 376.56 L 734.42 376.09 L 735.05 375.60 L 735.66 375.07 L 736.24 374.52 L 736.79 373.94 L 737.31 373.33 L 737.80 372.70 L 738.26 372.04 L 738.69 371.36 L 739.08 370.66 L 739.44 369.94 L 739.76 369.21 L 740.05 368.46 L 740.30 367.69 L 740.51 366.92 L 740.69 366.13 L 740.82 365.34 L 740.92 364.54 L 740.98 363.74 L 741.00 362.94 L 741.00 356.61 L 740.98 355.80 L 740.92 355.00 L 740.82 354.20 L 740.69 353.41 L 740.51 352.63 L 740.30 351.85 L 740.05 351.09 L 739.76 350.34 L 739.44 349.60 L 739.08 348.89 L 738.69 348.19 L 738.26 347.51 L 737.80 346.85 L 737.31 346.22 L 736.79 345.61 L 736.24 345.03 L 735.66 344.47 L 735.05 343.95 L 734.42 343.45 L 733.77 342.99 L 733.10 342.56 L 732.40 342.16 L 731.69 341.80 L 730.96 341.47 L 730.21 341.19 L 729.45 340.93 L 728.69 340.72 L 727.91 340.54 L 727.12 340.40 L 726.33 340.31 L 725.53 340.25 L 724.73 340.23 L 654.81 340.23 L 654.07 340.12 L 653.33 340.05 L 652.58 340.01 L 651.83 340.00 L 651.08 340.03 L 650.33 340.10 L 649.58 340.20 L 648.85 340.33 L 648.12 340.50 L 647.39 340.70 L 646.68 340.94 L 645.98 341.21 L 645.29 341.51 L 644.62 341.84 L 643.96 342.21 L 643.32 342.60 L 642.70 343.02 L 642.10 343.47 L 641.51 343.95 L 640.96 344.46 L 640.42 344.99 L 639.91 345.54 L 639.43 346.12 L 638.97 346.72 L 638.55 347.34 L 638.15 347.98 L 637.78 348.64 L 637.44 349.31 L 637.13 350.00 L 636.85 350.70 L 636.61 351.42 L 636.40 352.14 L 612.55 441.74 L 612.22 443.31 L 612.03 444.91 L 612.01 446.52 L 612.14 448.12 L 612.42 449.70 L 612.86 451.25 L 613.45 452.74 L 614.18 454.17 L 615.04 455.52 L 616.04 456.78 L 617.15 457.94 L 618.36 458.98 L 619.68 459.89 L 621.07 460.67 L 622.54 461.31 L 624.06 461.80 Z" fill="url(#linearGradient-10)" fill-rule="evenodd" group-id="2" id="路径" node-id="57" stroke-linecap="butt" stroke-width="1" target-height="123.98865" target-width="128.99127" target-x="612.0087" target-y="340.00253"></path><g node-id="77"><path d="M 362.09 408.00 L 367.70 408.00 L 383.19 408.00 L 406.59 408.00 L 435.93 408.00 L 469.23 408.00 L 504.50 408.00 L 539.77 408.00 L 573.06 408.00 L 602.40 408.00 L 625.81 408.00 L 641.30 408.00 L 646.90 408.00 L 649.68 408.30 L 652.16 409.08 L 654.39 410.34 L 656.34 412.01 L 657.90 413.97 L 659.08 416.25 L 659.79 418.71 L 659.99 421.30 L 659.65 424.07 L 658.62 428.40 L 655.85 440.17 L 651.76 457.52 L 646.80 478.58 L 641.40 501.49 L 635.99 524.41 L 631.03 545.47 L 626.94 562.82 L 624.17 574.59 L 623.15 578.92 L 622.49 580.94 L 621.57 582.75 L 620.39 584.38 L 618.97 585.81 L 617.38 586.99 L 615.59 587.93 L 613.68 588.59 L 611.68 588.94 L 609.56 588.97 L 604.17 588.62 L 589.39 587.67 L 567.31 586.24 L 540.02 584.48 L 509.60 582.51 L 478.14 580.48 L 447.72 578.52 L 420.43 576.75 L 398.35 575.33 L 383.57 574.37 L 378.18 574.02 L 374.13 573.49 L 370.33 572.50 L 366.74 571.04 L 363.36 569.15 L 360.30 566.90 L 357.52 564.28 L 355.07 561.35 L 353.02 558.15 L 351.35 554.66 L 350.12 550.99 L 349.37 547.14 L 349.10 543.07 L 349.09 538.89 L 349.09 527.67 L 349.07 511.44 L 349.06 492.20 L 349.04 471.95 L 349.03 452.71 L 349.01 436.48 L 349.00 425.27 L 349.00 421.08 L 349.22 418.69 L 349.82 416.51 L 350.78 414.48 L 352.08 412.64 L 353.64 411.09 L 355.48 409.79 L 357.51 408.82 L 359.70 408.22 L 362.09 408.00 Z" fill="url(#linearGradient-11)" fill-rule="nonzero" group-id="2,3" id="路径" node-id="59" stroke-linecap="butt" stroke-width="1" target-height="180.97247" target-width="310.98938" target-x="349" target-y="408"></path><path d="M 395.60 513.26 L 395.90 511.07 L 396.72 509.14 L 398.00 507.48 L 399.66 506.21 L 401.59 505.39 L 403.79 505.09 L 406.95 505.09 L 409.14 505.39 L 411.08 506.21 L 412.73 507.48 L 414.01 509.14 L 414.83 511.07 L 415.13 513.26 L 415.13 571.51 L 395.60 571.51 L 395.60 513.26 Z" fill="#dda139" fill-rule="nonzero" group-id="2,3" id="路径" node-id="60" stroke-linecap="butt" stroke-width="1" target-height="66.42322" target-width="19.5271" target-x="395.60416" target-y="505.09045"></path><path d="M 451.42 509.39 L 451.72 507.20 L 452.54 505.27 L 453.82 503.61 L 455.47 502.34 L 457.41 501.52 L 459.60 501.22 L 462.77 501.22 L 464.96 501.52 L 466.90 502.34 L 468.55 503.61 L 469.83 505.27 L 470.65 507.20 L 470.95 509.39 L 470.95 573.46 L 451.42 573.46 L 451.42 509.39 Z" fill="#dda139" fill-rule="nonzero" group-id="2,3" id="路径" node-id="61" stroke-linecap="butt" stroke-width="1" target-height="72.24509" target-width="19.5271" target-x="451.4223" target-y="501.21976"></path><path d="M 508.25 507.16 L 508.55 504.97 L 509.37 503.03 L 510.65 501.38 L 512.30 500.10 L 514.24 499.28 L 516.43 498.99 L 519.60 498.99 L 521.79 499.28 L 523.73 500.10 L 525.38 501.38 L 526.66 503.03 L 527.48 504.97 L 527.78 507.16 L 527.78 575.42 L 508.25 575.42 L 508.25 507.16 Z" fill="#dda139" fill-rule="nonzero" group-id="2,3" id="路径" node-id="62" stroke-linecap="butt" stroke-width="1" target-height="76.43182" target-width="19.5271" target-x="508.25067" target-y="498.98737"></path><path d="M 565.12 504.07 L 565.42 501.88 L 566.24 499.94 L 567.52 498.29 L 569.17 497.01 L 571.11 496.19 L 573.30 495.90 L 576.46 495.90 L 578.66 496.19 L 580.59 497.01 L 582.25 498.29 L 583.53 499.94 L 584.35 501.88 L 584.65 504.07 L 584.65 577.37 L 565.12 577.37 L 565.12 504.07 Z" fill="#dda139" fill-rule="nonzero" group-id="2,3" id="路径" node-id="63" stroke-linecap="butt" stroke-width="1" target-height="81.479004" target-width="19.5271" target-x="565.1195" target-y="495.89545"></path></g><path d="M 350.44 428.00 L 350.37 427.01 L 350.22 424.82 L 350.07 422.63 L 350.00 421.64 L 356.08 421.56 L 372.89 421.37 L 398.28 421.07 L 430.11 420.69 L 466.23 420.27 L 504.50 419.82 L 542.77 419.37 L 578.89 418.94 L 610.72 418.57 L 636.11 418.27 L 652.92 418.07 L 659.00 418.00 L 658.56 419.56 L 657.59 423.00 L 656.62 426.44 L 656.18 428.00 L 650.17 428.00 L 633.54 428.00 L 608.41 428.00 L 576.92 428.00 L 541.18 428.00 L 503.31 428.00 L 465.45 428.00 L 429.71 428.00 L 398.21 428.00 L 373.09 428.00 L 356.46 428.00 L 350.44 428.00 Z" fill="#dcb977" fill-rule="nonzero" group-id="2" id="路径" node-id="64" stroke-linecap="butt" stroke-width="1" target-height="10" target-width="309" target-x="350" target-y="418"></path><path d="M 341.19 394.00 L 672.81 394.00 L 674.74 394.26 L 676.44 394.98 L 677.89 396.11 L 679.02 397.56 L 679.74 399.26 L 680.00 401.19 L 680.00 415.81 L 679.74 417.74 L 679.02 419.44 L 677.89 420.89 L 676.44 422.02 L 674.74 422.74 L 672.81 423.00 L 341.19 423.00 L 339.26 422.74 L 337.56 422.02 L 336.11 420.89 L 334.98 419.44 L 334.26 417.74 L 334.00 415.81 L 334.00 401.19 L 334.26 399.26 L 334.98 397.56 L 336.11 396.11 L 337.56 394.98 L 339.26 394.26 L 341.19 394.00 Z" fill="url(#linearGradient-12)" fill-rule="nonzero" group-id="2" id="矩形" node-id="65" stroke-linecap="butt" stroke-width="1" target-height="29" target-width="346" target-x="334" target-y="394"></path><path d="M 477.00 648.00 L 476.66 652.94 L 475.71 657.60 L 474.17 662.01 L 472.07 666.19 L 469.50 670.00 L 466.46 673.46 L 463.00 676.50 L 459.19 679.07 L 455.01 681.17 L 450.60 682.71 L 445.94 683.66 L 441.00 684.00 L 436.06 683.66 L 431.40 682.71 L 426.99 681.17 L 422.81 679.07 L 419.00 676.50 L 415.54 673.46 L 412.50 670.00 L 409.93 666.19 L 407.83 662.01 L 406.29 657.60 L 405.34 652.94 L 405.00 648.00 L 405.34 643.06 L 406.29 638.40 L 407.83 633.99 L 409.93 629.81 L 412.50 626.00 L 415.54 622.54 L 419.00 619.50 L 422.81 616.93 L 426.99 614.83 L 431.40 613.29 L 436.06 612.34 L 441.00 612.00 L 445.94 612.34 L 450.60 613.29 L 455.01 614.83 L 459.19 616.93 L 463.00 619.50 L 466.46 622.54 L 469.50 626.00 L 472.07 629.81 L 474.17 633.99 L 475.71 638.40 L 476.66 643.06 L 477.00 648.00 Z" fill="#ecaf55" fill-rule="nonzero" group-id="2,4" id="椭圆形" node-id="67" stroke-linecap="butt" stroke-width="1" target-height="72" target-width="72" target-x="405" target-y="612"></path><path d="M 459.55 648.00 L 459.23 651.38 L 458.38 654.49 L 457.01 657.36 L 455.17 659.96 L 452.96 662.17 L 450.36 664.01 L 447.49 665.38 L 444.38 666.23 L 441.00 666.55 L 437.61 666.23 L 434.51 665.38 L 431.64 664.01 L 429.04 662.17 L 426.83 659.96 L 424.99 657.36 L 423.61 654.49 L 422.77 651.38 L 422.45 648.00 L 422.77 644.61 L 423.61 641.51 L 424.99 638.64 L 426.83 636.04 L 429.04 633.83 L 431.64 631.99 L 434.51 630.62 L 437.61 629.77 L 441.00 629.45 L 444.38 629.77 L 447.49 630.62 L 450.36 631.99 L 452.96 633.83 L 455.17 636.04 L 457.01 638.64 L 458.38 641.51 L 459.23 644.61 L 459.55 648.00 Z" fill="#ffffff" fill-rule="nonzero" group-id="2,4" id="椭圆形" node-id="68" stroke-linecap="butt" stroke-width="1" target-height="37.09088" target-width="37.09091" target-x="422.4542" target-y="629.4544"></path><path d="M 596.00 648.00 L 595.66 652.94 L 594.71 657.60 L 593.17 662.01 L 591.07 666.19 L 588.50 670.00 L 585.46 673.46 L 582.00 676.50 L 578.19 679.07 L 574.01 681.17 L 569.60 682.71 L 564.94 683.66 L 560.00 684.00 L 555.06 683.66 L 550.40 682.71 L 545.99 681.17 L 541.81 679.07 L 538.00 676.50 L 534.54 673.46 L 531.50 670.00 L 528.93 666.19 L 526.83 662.01 L 525.29 657.60 L 524.34 652.94 L 524.00 648.00 L 524.34 643.06 L 525.29 638.40 L 526.83 633.99 L 528.93 629.81 L 531.50 626.00 L 534.54 622.54 L 538.00 619.50 L 541.81 616.93 L 545.99 614.83 L 550.40 613.29 L 555.06 612.34 L 560.00 612.00 L 564.94 612.34 L 569.60 613.29 L 574.01 614.83 L 578.19 616.93 L 582.00 619.50 L 585.46 622.54 L 588.50 626.00 L 591.07 629.81 L 593.17 633.99 L 594.71 638.40 L 595.66 643.06 L 596.00 648.00 Z" fill="#ecaf55" fill-rule="nonzero" group-id="2,5" id="椭圆形" node-id="70" stroke-linecap="butt" stroke-width="1" target-height="72" target-width="72" target-x="524" target-y="612"></path><path d="M 578.55 648.00 L 578.23 651.38 L 577.38 654.49 L 576.01 657.36 L 574.17 659.96 L 571.96 662.17 L 569.36 664.01 L 566.49 665.38 L 563.38 666.23 L 560.00 666.55 L 556.61 666.23 L 553.51 665.38 L 550.64 664.01 L 548.04 662.17 L 545.83 659.96 L 543.99 657.36 L 542.61 654.49 L 541.77 651.38 L 541.45 648.00 L 541.77 644.61 L 542.61 641.51 L 543.99 638.64 L 545.83 636.04 L 548.04 633.83 L 550.64 631.99 L 553.51 630.62 L 556.61 629.77 L 560.00 629.45 L 563.38 629.77 L 566.49 630.62 L 569.36 631.99 L 571.96 633.83 L 574.17 636.04 L 576.01 638.64 L 577.38 641.51 L 578.23 644.61 L 578.55 648.00 Z" fill="#ffffff" fill-rule="nonzero" group-id="2,5" id="椭圆形" node-id="71" stroke-linecap="butt" stroke-width="1" target-height="37.09088" target-width="37.090942" target-x="541.45416" target-y="629.4544"></path></g></svg>